<?xml version="1.0" encoding="UTF-8" standalone="no"?>
<!DOCTYPE svg PUBLIC "-//W3C//DTD SVG 20010904//EN"
              "http://www.w3.org/TR/2001/REC-SVG-20010904/DTD/svg10.dtd">

<svg xmlns="http://www.w3.org/2000/svg"
     width="1.66667in" height="1.66667in"
     viewBox="0 0 500 500">
  <path id="Sélection"
        fill="#b35900" stroke="none" stroke-width="1"
        d="M 81.00,88.00
           C 81.00,88.00 405.00,88.00 405.00,88.00
             405.00,88.00 405.00,128.00 405.00,128.00
             405.00,128.00 81.00,128.00 81.00,128.00
             81.00,128.00 81.00,88.00 81.00,88.00 Z
           M 94.00,144.00
           C 94.00,144.00 320.00,144.00 320.00,144.00
             320.00,144.00 379.00,144.00 379.00,144.00
             387.64,144.02 387.98,144.36 388.00,153.00
             388.00,153.00 388.00,334.00 388.00,334.00
             395.59,334.00 404.99,332.45 410.79,338.21
             418.90,346.28 418.33,366.69 406.00,370.87
             397.18,373.41 390.40,371.10 382.00,370.87
             382.00,370.87 293.00,370.87 293.00,370.87
             293.00,370.87 293.00,260.00 293.00,260.00
             293.00,257.27 293.09,254.66 292.39,252.00
             288.65,237.85 271.12,220.69 257.00,216.78
             252.78,215.62 244.66,215.99 240.00,216.00
             224.83,216.02 212.60,225.12 203.76,237.00
             200.66,241.17 195.46,249.97 194.13,255.00
             194.13,255.00 194.13,287.00 194.13,287.00
             194.13,287.00 194.13,367.00 194.13,367.00
             194.13,367.00 81.00,367.00 81.00,367.00
             77.51,366.99 74.10,367.27 71.04,365.26
             62.11,359.40 61.76,342.73 68.39,335.10
             74.43,328.14 84.64,330.00 93.00,330.00
             93.00,330.00 93.00,205.00 93.00,205.00
             93.00,205.00 94.00,190.00 94.00,190.00
             94.00,190.00 94.00,144.00 94.00,144.00 Z" />
</svg>
