<?xml version="1.0" encoding="UTF-8" standalone="no"?>
<!DOCTYPE svg PUBLIC "-//W3C//DTD SVG 20010904//EN"
              "http://www.w3.org/TR/2001/REC-SVG-20010904/DTD/svg10.dtd">

<svg xmlns="http://www.w3.org/2000/svg"
     width="135.593mm" height="135.593mm"
     viewBox="0 0 64 64">
  <path id="Sélection"
        fill="orange" stroke="white" stroke-width="1"
        d="M 28.00,60.00
           C -5.38,56.97 -3.90,4.41 30.00,4.00
             41.27,3.87 49.23,5.91 55.89,16.00
             60.17,22.48 60.09,26.60 60.00,34.00
             59.83,48.19 49.20,59.30 35.00,60.00
             35.00,60.00 35.00,38.00 35.00,38.00
             35.00,38.00 42.00,38.00 42.00,38.00
             42.00,38.00 42.00,31.00 42.00,31.00
             42.00,31.00 35.00,31.00 35.00,31.00
             35.03,23.20 34.86,22.11 43.00,22.00
             43.00,22.00 43.00,16.00 43.00,16.00
             31.35,16.04 28.11,19.25 28.00,31.00
             28.00,31.00 22.00,31.00 22.00,31.00
             22.00,31.00 22.00,38.00 22.00,38.00
             22.00,38.00 28.00,38.00 28.00,38.00
             28.00,38.00 28.00,60.00 28.00,60.00 Z" />
</svg>
