<?xml version="1.0" encoding="UTF-8" standalone="no"?>
<!DOCTYPE svg PUBLIC "-//W3C//DTD SVG 20010904//EN"
              "http://www.w3.org/TR/2001/REC-SVG-20010904/DTD/svg10.dtd">

<svg xmlns="http://www.w3.org/2000/svg"
     width="2.08333in" height="2.08333in"
     viewBox="0 0 200 200">
  <path id="Sélection"
        fill="#b35900" stroke="none" stroke-width="1"
        d="M 44.00,59.91
           C 52.00,58.82 70.55,57.73 77.55,60.73
             78.45,69.09 77.99,74.92 78.00,77.00
             78.00,77.00 78.00,100.00 78.00,100.00
             78.02,108.33 79.89,113.14 89.00,107.92
             95.32,104.29 106.89,91.77 114.27,90.18
             125.09,87.85 115.89,108.46 123.11,109.50
             130.75,110.61 139.19,100.31 146.81,95.31
             151.62,92.32 157.95,86.30 159.69,91.38
             159.91,93.15 160.00,108.08 159.86,110.00
             159.86,110.00 159.86,150.00 159.86,150.00
             159.95,153.46 160.17,160.13 159.70,162.83
             154.35,162.91 150.50,162.99 147.00,163.00
             147.00,163.00 57.00,163.00 57.00,163.00
             42.18,163.27 41.82,166.55 43.00,148.00
             43.00,148.00 43.00,87.00 43.00,87.00
             43.00,77.34 43.00,66.18 44.00,59.91 Z
           M 89.91,74.73M 46.00,59.09" />
</svg>
